HIERARCHY
ROOT Hips
{
	OFFSET 0.00000 0.00000 0.00000
	CHANNELS 6 Xposition Yposition Zposition Zrotation Yrotation Xrotation 
	JOINT LHipJoint
	{
		OFFSET 0 0 0
		CHANNELS 3 Zrotation Yrotation Xrotation
		JOINT LeftUpLeg
		{
			OFFSET 1.68708 -1.95465 0.44686
			CHANNELS 3 Zrotation Yrotation Xrotation
			JOINT LeftLeg
			{
				OFFSET 2.70941 -7.44405 0.00000
				CHANNELS 3 Zrotation Yrotation Xrotation
				JOINT LeftFoot
				{
					OFFSET 2.79200 -7.67096 0.00000
					CHANNELS 3 Zrotation Yrotation Xrotation
					JOINT LeftToeBase
					{
						OFFSET 0.16283 -0.44736 1.88537
						CHANNELS 3 Zrotation Yrotation Xrotation
						End Site
						{
							OFFSET 0.00000 -0.00000 0.97880
						}
					}
				}
			}
		}
	}
	JOINT RHipJoint
	{
		OFFSET 0 0 0
		CHANNELS 3 Zrotation Yrotation Xrotation
		JOINT RightUpLeg
		{
			OFFSET -1.74683 -1.95464 0.44686
			CHANNELS 3 Zrotation Yrotation Xrotation
			JOINT RightLeg
			{
				OFFSET -2.59506 -7.12988 0.00000
				CHANNELS 3 Zrotation Yrotation Xrotation
				JOINT RightFoot
				{
					OFFSET -2.83034 -7.77381 0.00000
					CHANNELS 3 Zrotation Yrotation Xrotation
					JOINT RightToeBase
					{
						OFFSET -0.14615 -0.40154 2.08760
						CHANNELS 3 Zrotation Yrotation Xrotation
						End Site
						{
							OFFSET -0.00000 -0.00000 1.07326
						}
					}
				}
			}
		}
	}
	JOINT LowerBack
	{
		OFFSET 0 0 0
		CHANNELS 3 Zrotation Yrotation Xrotation
		JOINT Spine
		{
			OFFSET -0.06719 1.86653 0.12233
			CHANNELS 3 Zrotation Yrotation Xrotation
			JOINT Spine1
			{
				OFFSET 0.03775 1.86572 0.09265
				CHANNELS 3 Zrotation Yrotation Xrotation
				JOINT Neck
				{
					OFFSET 0 0 0
					CHANNELS 3 Zrotation Yrotation Xrotation
					JOINT Neck1
					{
						OFFSET 0.05249 1.84505 -0.01104
						CHANNELS 3 Zrotation Yrotation Xrotation
						JOINT Head
						{
							OFFSET -0.16383 1.83237 -0.13558
							CHANNELS 3 Zrotation Yrotation Xrotation
							End Site
							{
								OFFSET -0.05531 1.86398 -0.05647
							}
						}
					}
				}
				JOINT LeftShoulder
				{
					OFFSET 0 0 0
					CHANNELS 3 Zrotation Yrotation Xrotation
					JOINT LeftArm
					{
						OFFSET 3.67445 1.40514 -0.06040
						CHANNELS 3 Zrotation Yrotation Xrotation
						JOINT LeftForeArm
						{
							OFFSET 5.78174 -0.00000 0.00000
							CHANNELS 3 Zrotation Yrotation Xrotation
							JOINT LeftHand
							{
								OFFSET 3.53992 -0.00000 0.00000
								CHANNELS 3 Zrotation Yrotation Xrotation
								JOINT LeftFingerBase
								{
									OFFSET 0 0 0
									CHANNELS 3 Zrotation Yrotation Xrotation
									JOINT LeftHandIndex1
									{
										OFFSET 0.55024 -0.00000 0.00000
										CHANNELS 3 Zrotation Yrotation Xrotation
										End Site
										{
											OFFSET 0.44362 -0.00000 0.00000
										}
									}
								}
								JOINT LThumb
								{
									OFFSET 0 0 0
									CHANNELS 3 Zrotation Yrotation Xrotation
									End Site
									{
										OFFSET 0.45039 -0.00000 0.45039
									}
								}
							}
						}
					}
				}
				JOINT RightShoulder
				{
					OFFSET 0 0 0
					CHANNELS 3 Zrotation Yrotation Xrotation
					JOINT RightArm
					{
						OFFSET -3.76648 1.20860 0.21069
						CHANNELS 3 Zrotation Yrotation Xrotation
						JOINT RightForeArm
						{
							OFFSET -5.79352 -0.00000 -0.00000
							CHANNELS 3 Zrotation Yrotation Xrotation
							JOINT RightHand
							{
								OFFSET -3.37081 -0.00000 0.00000
								CHANNELS 3 Zrotation Yrotation Xrotation
								JOINT RightFingerBase
								{
									OFFSET 0 0 0
									CHANNELS 3 Zrotation Yrotation Xrotation
									JOINT RightHandIndex1
									{
										OFFSET -0.67983 -0.00000 0.00000
										CHANNELS 3 Zrotation Yrotation Xrotation
										End Site
										{
											OFFSET -0.54809 -0.00000 0.00000
										}
									}
								}
								JOINT RThumb
								{
									OFFSET 0 0 0
									CHANNELS 3 Zrotation Yrotation Xrotation
									End Site
									{
										OFFSET -0.55646 -0.00000 0.55646
									}
								}
							}
						}
					}
				}
			}
		}
	}
}
MOTION
Frames: 8
Frame Time: .0083333
4.3267 18.2345 -10.0726 0 0 0 0 0 0 -21 0 0 0 0 0 0 0 0 0 0 0 0 0 0 21 0 0 0 0 0 0 0 0 0 0 0 0 0 0 0 0 0 0 0 0 0 0 -16 0 0 21 0 0 11 0 0 0 -8 0 0 0 0 0 0 0 0 0 0 0 0 0 0 0 0 0 0 0 0 8 0 0 0 0 0 0 0 0 0 0 0 0 0 0 0 0 0
4.3267 18.2345 -10.0726 175.9030 28.8151 -165.9370 0.0000 0.0000 0.0000 -26.9186 -4.9212 -14.1967 1.5230 7.7926 22.0858 1.3319 -7.4527 -20.6313 1.2935 -7.2060 -20.3271 0.0000 0.0000 0.0000 8.8653 17.2409 -37.6521 -1.2966 -7.2145 20.3523 0.6100 -17.6391 -18.4472 -0.0254 1.0291 -2.8288 -7.0820 -2.1852 -7.3754 1.6290 -2.1194 -6.1198 5.5471 -0.6216 -1.9168 4.3836 6.7803 -4.4802 -7.3935 9.8756 10.3513 -2.4179 4.7806 4.4156 -0.0000 -0.0000 0.0000 -71.4767 12.6586 40.3288 66.7690 -57.8592 -40.0260 -0.0000 0.0000 -10.8003 23.1290 -8.2154 -3.4928 -7.1250 0.0000 -0.0000 -2.6974 21.0616 1.5495 -0.0000 -0.0000 0.0000 75.6677 -25.7505 47.1713 -26.0036 37.2123 -8.8898 0.0000 -0.0000 -9.7980 -12.3948 -32.1671 6.6734 7.1250 -0.0000 -0.0000 23.1854 -61.2533 -9.4634
4.3976 18.2252 -10.1953 175.8310 28.9744 -166.0540 0.0000 0.0000 0.0000 -27.1016 -4.6308 -13.2696 1.4285 7.5574 21.3776 1.3601 -7.0556 -20.8539 1.2818 -7.1745 -20.2334 0.0000 0.0000 0.0000 7.9626 18.4276 -36.6207 -0.9584 -6.2338 17.4644 0.6796 -18.3658 -18.9982 -0.0551 1.5148 -4.1667 -7.0461 -2.1579 -7.3360 1.6543 -2.0866 -6.1516 5.5571 -0.6017 -1.9769 4.0152 6.7961 -4.4384 -7.0432 9.9125 10.5838 -2.2498 4.8028 4.4462 -0.0000 0.0000 0.0000 -71.5752 12.6998 40.6199 67.6238 -58.0209 -40.7504 -0.0000 0.0000 -10.9068 23.2080 -8.1573 -3.4815 -7.1250 0.0000 -0.0000 -2.6387 21.1193 1.5123 -0.0000 0.0000 0.0000 75.5233 -25.8226 47.1658 -26.0655 37.2734 -8.9273 0.0000 -0.0000 -9.8602 -12.4263 -31.5865 6.5836 7.1250 -0.0000 -0.0000 22.6508 -60.7325 -8.9507
4.4724 18.2098 -10.3167 175.6900 29.1007 -165.9320 0.0000 0.0000 0.0000 -27.2801 -5.0635 -12.4379 1.3427 7.3363 20.7157 1.4382 -6.3701 -21.4815 1.3454 -7.3436 -20.7372 0.0000 0.0000 0.0000 6.6629 19.8998 -35.9463 -0.6918 -5.3172 14.8157 0.7536 -19.2027 -19.7745 -0.1241 2.2714 -6.2562 -7.0236 -2.1764 -7.7078 1.6014 -2.0763 -6.1508 5.4796 -0.6024 -1.7738 3.9127 6.8073 -4.2976 -6.9664 9.9224 10.4885 -2.2168 4.8122 4.3853 0.0000 0.0000 0.0000 -71.6561 12.5928 40.6996 68.4453 -58.1696 -41.4478 -0.0000 0.0000 -10.8057 22.8296 -7.6944 -3.2260 -7.1250 0.0000 -0.0000 -2.9031 21.6444 1.6296 0.0000 0.0000 0.0000 75.5756 -25.8701 47.0129 -26.1739 37.3800 -8.9930 0.0000 -0.0000 -9.8955 -12.7629 -31.3007 6.7117 7.1250 -0.0000 -0.0000 22.0571 -60.5513 -8.6068
4.5483 18.1963 -10.4357 175.5200 29.0256 -165.7600 0.0000 0.0000 0.0000 -27.4422 -5.4024 -11.7724 1.2727 7.1500 20.1606 1.5035 -5.7707 -22.0189 1.6092 -7.9995 -22.7127 0.0000 0.0000 0.0000 4.9792 21.7478 -34.9421 -0.4385 -4.2494 11.7793 0.9169 -20.5877 -20.6809 -0.0926 1.9625 -5.4021 -7.0755 -2.2698 -8.0650 1.5724 -2.1612 -6.1612 5.4629 -0.6468 -1.5746 3.8288 6.7605 -4.1369 -6.9537 9.8400 10.2151 -2.2158 4.7749 4.2659 0.0000 0.0000 0.0000 -71.8157 12.5221 40.6231 69.2203 -58.3039 -42.1067 -0.0000 0.0000 -10.4873 22.4766 -7.6780 -3.1639 -7.1250 0.0000 -0.0000 -3.1596 21.6839 1.7712 0.0000 0.0000 0.0000 75.7356 -25.8134 46.6701 -26.2435 37.4482 -9.0353 0.0000 -0.0000 -9.7713 -13.0879 -31.4685 6.9198 7.1250 -0.0000 -0.0000 21.8533 -60.7831 -8.6439
4.6241 18.1777 -10.5474 175.3190 28.8653 -165.6790 0.0000 0.0000 0.0000 -27.6526 -5.2714 -11.2421 1.2234 7.0155 19.7613 1.5267 -5.1810 -22.2495 2.0079 -8.8825 -25.4283 0.0000 0.0000 0.0000 5.0778 21.1134 -33.9204 -0.2211 -3.0266 8.3529 0.7798 -19.6144 -20.3045 -0.0198 0.9089 -2.4981 -7.2637 -2.3722 -8.0397 1.5910 -2.2786 -6.2868 5.5827 -0.6849 -1.6979 3.9578 6.7879 -4.0014 -7.0773 9.9018 10.3071 -2.2727 4.8093 4.2871 0.0000 0.0000 0.0000 -71.9184 12.6268 40.8136 69.9560 -58.4262 -42.7332 -0.0000 0.0000 -10.3281 22.4711 -7.9417 -3.2708 -7.1250 0.0000 -0.0000 -3.1682 21.4003 1.7964 0.0000 0.0000 0.0000 75.7893 -25.7952 46.5110 -26.2719 37.4760 -9.0526 0.0000 -0.0000 -9.7065 -13.2223 -31.6569 7.0299 7.1250 -0.0000 -0.0000 21.8688 -60.9885 -8.7576
4.7010 18.1580 -10.6574 175.1910 28.7863 -165.5910 0.0000 0.0000 0.0000 -27.8025 -5.0636 -10.7184 1.1840 6.9055 19.4358 1.5047 -4.7178 -22.1356 2.2664 -9.4003 -27.0557 0.0000 0.0000 0.0000 5.0720 20.2289 -32.3673 -0.0507 -1.4533 3.9969 0.7214 -18.8367 -19.4270 -0.0001 -0.0627 0.1723 -7.4179 -2.4171 -7.8948 1.6086 -2.3335 -6.4203 5.6907 -0.6895 -1.9055 4.1190 6.8217 -4.1320 -7.1443 9.9670 10.5697 -2.3046 4.8393 4.4038 -0.0000 0.0000 0.0000 -71.8954 12.7007 41.2405 70.5198 -58.5164 -43.2137 -0.0000 0.0000 -10.3491 22.4326 -8.2920 -3.4073 -7.1250 0.0000 -0.0000 -3.2029 21.0256 1.8433 -0.0000 0.0000 0.0000 75.8472 -25.7897 46.3756 -26.2700 37.4740 -9.0514 0.0000 -0.0000 -9.6500 -13.1969 -31.4580 6.9768 7.1250 -0.0000 -0.0000 21.7292 -60.7996 -8.6007
4.7801 18.1539 -10.7724 175.0500 28.8631 -165.5130 0.0000 0.0000 0.0000 -27.9337 -4.9962 -10.1979 1.1517 6.8140 19.1656 1.4579 -4.7132 -21.7751 2.1198 -9.1113 -26.1441 0.0000 0.0000 0.0000 4.7444 19.3701 -30.9899 0.0000 0.0000 -0.0000 0.6385 -17.7386 -18.2548 -0.0951 -1.9889 5.4750 -7.5080 -2.4532 -7.9688 1.5833 -2.3674 -6.4422 5.7106 -0.7024 -1.8810 4.2525 6.7870 -4.3326 -7.2603 9.9115 10.5709 -2.3567 4.8041 4.4469 0.0000 -0.0000 0.0000 -71.9318 12.7301 41.4109 70.9617 -58.5852 -43.5907 -0.0000 0.0000 -10.1031 22.4870 -8.6903 -3.5789 -7.1250 0.0000 -0.0000 -3.1722 20.5933 1.8565 0.0000 -0.0000 0.0000 75.8965 -25.6418 46.3817 -26.2638 37.4681 -9.0477 0.0000 -0.0000 -9.5713 -13.2462 -31.4842 7.0088 7.1250 -0.0000 -0.0000 21.6987 -60.8355 -8.6065
